# Blender v3.2.2 OBJ File: 'present.blend'
# www.blender.org
mtllib present.mtl
o Cube
v 0.608557 0.650536 -0.608557
v 0.496406 -0.650536 -0.496406
v 0.608557 0.650536 0.608557
v 0.496406 -0.650536 0.496406
v -0.608557 0.650536 -0.608557
v -0.496406 -0.650536 -0.496406
v -0.608557 0.650536 0.608557
v -0.496406 -0.650536 0.496406
v 0.608557 0.185206 -0.608557
v -0.608557 0.185206 0.608557
v 0.608557 0.185206 0.608557
v -0.608557 0.185206 -0.608557
v 0.560045 0.185206 -0.560045
v 0.560045 0.185206 0.560045
v -0.560045 0.185206 -0.560045
v -0.560045 0.185206 0.560045
vt 0.253906 0.246094
vt 0.253906 0.003906
vt 0.496094 0.003906
vt 0.496094 0.246094
vt 0.246094 0.183594
vt 0.246094 0.246094
vt 0.003906 0.246094
vt 0.003906 0.183594
vt 0.246094 0.183594
vt 0.246094 0.246094
vt 0.003906 0.246094
vt 0.003906 0.183594
vt 0.474162 0.224162
vt 0.474162 0.025838
vt 0.275838 0.025838
vt 0.275838 0.224162
vt 0.246094 0.183594
vt 0.246094 0.246094
vt 0.003906 0.246094
vt 0.003906 0.183594
vt 0.246094 0.183594
vt 0.246094 0.246094
vt 0.003906 0.246094
vt 0.003906 0.183594
vt 0.013322 0.174914
vt 0.003654 0.173396
vt 0.246212 0.173396
vt 0.236544 0.174914
vt 0.015052 0.179407
vt 0.005534 0.177911
vt 0.244332 0.177911
vt 0.234814 0.179407
vt 0.012750 0.176420
vt 0.003032 0.174893
vt 0.246834 0.174893
vt 0.237117 0.176420
vt 0.015052 0.177905
vt 0.005534 0.176410
vt 0.244332 0.176410
vt 0.234814 0.177905
vt 0.026070 0.004727
vt 0.013427 0.170155
vt 0.235952 0.170155
vt 0.223309 0.004727
vt 0.026070 0.004727
vt 0.013427 0.170155
vt 0.235952 0.170155
vt 0.223309 0.004727
vt 0.026070 0.004727
vt 0.013427 0.170155
vt 0.235952 0.170155
vt 0.223309 0.004727
vt 0.026070 0.004727
vt 0.013427 0.170155
vt 0.235952 0.170155
vt 0.223309 0.004727
vn 0.5774 0.5774 -0.5774
vn -0.5774 0.5774 -0.5774
vn -0.5774 0.5774 0.5774
vn 0.5774 0.5774 0.5774
vn 0.5774 -0.5774 0.5774
vn -0.5774 -0.5774 0.5774
vn -0.5774 -0.5774 -0.5774
vn -0.5564 -0.6171 -0.5564
vn 0.5564 -0.6171 -0.5564
vn 0.5564 -0.6171 0.5564
vn -0.5564 -0.6171 0.5564
vn 0.5774 -0.5774 -0.5774
vn -0.2776 -0.9197 -0.2776
vn 0.2776 -0.9197 -0.2776
vn 0.2776 -0.9197 0.2776
vn -0.2776 -0.9197 0.2776
usemtl Material
s 1
f 1/1/1 5/2/2 7/3/3 3/4/4
f 11/5/5 3/6/4 7/7/3 10/8/6
f 10/9/6 7/10/3 5/11/2 12/12/7
f 6/13/8 2/14/9 4/15/10 8/16/11
f 9/17/12 1/18/1 3/19/4 11/20/5
f 12/21/7 5/22/2 1/23/1 9/24/12
f 15/25/13 12/26/7 9/27/12 13/28/14
f 13/29/14 9/30/12 11/31/5 14/32/15
f 16/33/16 10/34/6 12/35/7 15/36/13
f 14/37/15 11/38/5 10/39/6 16/40/16
f 4/41/10 14/42/15 16/43/16 8/44/11
f 8/45/11 16/46/16 15/47/13 6/48/8
f 2/49/9 13/50/14 14/51/15 4/52/10
f 6/53/8 15/54/13 13/55/14 2/56/9
o Plane
v -0.459893 0.638060 0.459893
v 0.459893 0.638060 -0.459893
v -0.459893 1.196278 0.459893
v 0.459893 1.196278 -0.459893
v 0.459893 0.638060 0.459893
v -0.459893 0.638060 -0.459893
v 0.459893 1.196278 0.459893
v -0.459893 1.196278 -0.459893
vt 0.750000 0.000000
vt 0.507812 0.000000
vt 0.507812 0.109375
vt 0.750000 0.109375
vt 0.750000 0.000000
vt 0.507812 0.000000
vt 0.507812 0.109375
vt 0.750000 0.109375
vn 0.7071 0.0000 0.7071
vn 0.7071 0.0000 -0.7071
usemtl Material
s off
f 17/57/17 18/58/17 20/59/17 19/60/17
f 21/61/18 22/62/18 24/63/18 23/64/18
